HIERARCHY
ROOT Hips
{
	OFFSET 0.00000 0.00000 0.00000
	CHANNELS 6 Xposition Yposition Zposition Zrotation Yrotation Xrotation 
	JOINT LHipJoint
	{
		OFFSET 0 0 0
		CHANNELS 3 Zrotation Yrotation Xrotation
		JOINT LeftUpLeg
		{
			OFFSET 1.88772 -1.62769 0.85636
			CHANNELS 3 Zrotation Yrotation Xrotation
			JOINT LeftLeg
			{
				OFFSET 2.39836 -6.58946 0.00000
				CHANNELS 3 Zrotation Yrotation Xrotation
				JOINT LeftFoot
				{
					OFFSET 2.78523 -7.65237 0.00000
					CHANNELS 3 Zrotation Yrotation Xrotation
					JOINT LeftToeBase
					{
						OFFSET 0.19551 -0.53715 1.90694
						CHANNELS 3 Zrotation Yrotation Xrotation
						End Site
						{
							OFFSET 0.00000 -0.00000 0.99735
						}
					}
				}
			}
		}
	}
	JOINT RHipJoint
	{
		OFFSET 0 0 0
		CHANNELS 3 Zrotation Yrotation Xrotation
		JOINT RightUpLeg
		{
			OFFSET -1.74282 -1.62769 0.85636
			CHANNELS 3 Zrotation Yrotation Xrotation
			JOINT RightLeg
			{
				OFFSET -2.36062 -6.48575 0.00000
				CHANNELS 3 Zrotation Yrotation Xrotation
				JOINT RightFoot
				{
					OFFSET -2.76258 -7.59014 0.00000
					CHANNELS 3 Zrotation Yrotation Xrotation
					JOINT RightToeBase
					{
						OFFSET -0.19308 -0.53048 2.03952
						CHANNELS 3 Zrotation Yrotation Xrotation
						End Site
						{
							OFFSET -0.00000 -0.00000 1.06031
						}
					}
				}
			}
		}
	}
	JOINT LowerBack
	{
		OFFSET 0 0 0
		CHANNELS 3 Zrotation Yrotation Xrotation
		JOINT Spine
		{
			OFFSET -0.08299 2.03160 -0.30721
			CHANNELS 3 Zrotation Yrotation Xrotation
			JOINT Spine1
			{
				OFFSET -0.01030 2.00603 0.13891
				CHANNELS 3 Zrotation Yrotation Xrotation
				JOINT Neck
				{
					OFFSET 0 0 0
					CHANNELS 3 Zrotation Yrotation Xrotation
					JOINT Neck1
					{
						OFFSET 0.04282 1.69578 0.19991
						CHANNELS 3 Zrotation Yrotation Xrotation
						JOINT Head
						{
							OFFSET -0.08665 1.66622 -0.03785
							CHANNELS 3 Zrotation Yrotation Xrotation
							End Site
							{
								OFFSET -0.03699 1.83329 -0.04094
							}
						}
					}
				}
				JOINT LeftShoulder
				{
					OFFSET 0 0 0
					CHANNELS 3 Zrotation Yrotation Xrotation
					JOINT LeftArm
					{
						OFFSET 3.04219 1.50803 -0.05347
						CHANNELS 3 Zrotation Yrotation Xrotation
						JOINT LeftForeArm
						{
							OFFSET 5.79199 -0.00000 0.00000
							CHANNELS 3 Zrotation Yrotation Xrotation
							JOINT LeftHand
							{
								OFFSET 3.49908 -0.00000 0.00000
								CHANNELS 3 Zrotation Yrotation Xrotation
								JOINT LeftFingerBase
								{
									OFFSET 0 0 0
									CHANNELS 3 Zrotation Yrotation Xrotation
									JOINT LeftHandIndex1
									{
										OFFSET 0.59386 -0.00000 0.00000
										CHANNELS 3 Zrotation Yrotation Xrotation
										End Site
										{
											OFFSET 0.47879 -0.00000 0.00000
										}
									}
								}
								JOINT LThumb
								{
									OFFSET 0 0 0
									CHANNELS 3 Zrotation Yrotation Xrotation
									End Site
									{
										OFFSET 0.48610 -0.00000 0.48610
									}
								}
							}
						}
					}
				}
				JOINT RightShoulder
				{
					OFFSET 0 0 0
					CHANNELS 3 Zrotation Yrotation Xrotation
					JOINT RightArm
					{
						OFFSET -3.30316 1.18853 0.11175
						CHANNELS 3 Zrotation Yrotation Xrotation
						JOINT RightForeArm
						{
							OFFSET -5.73799 -0.00000 0.00000
							CHANNELS 3 Zrotation Yrotation Xrotation
							JOINT RightHand
							{
								OFFSET -3.57916 -0.00000 -0.00000
								CHANNELS 3 Zrotation Yrotation Xrotation
								JOINT RightFingerBase
								{
									OFFSET 0 0 0
									CHANNELS 3 Zrotation Yrotation Xrotation
									JOINT RightHandIndex1
									{
										OFFSET -0.61558 -0.00000 0.00000
										CHANNELS 3 Zrotation Yrotation Xrotation
										End Site
										{
											OFFSET -0.49629 -0.00000 0.00000
										}
									}
								}
								JOINT RThumb
								{
									OFFSET 0 0 0
									CHANNELS 3 Zrotation Yrotation Xrotation
									End Site
									{
										OFFSET -0.50387 -0.00000 0.50387
									}
								}
							}
						}
					}
				}
			}
		}
	}
}
MOTION
Frames: 14
Frame Time: 0.010101
0.00 0.00 0.00 0 0 0 0 0 0 -21 0 0 0 0 0 0 0 0 0 0 0 0 0 0 21 0 0 0 0 0 0 0 0 0 0 0 0 0 0 0 0 0 0 0 0 0 0 -16 0 0 21 0 0 11 0 0 0 -8 0 0 0 0 0 0 0 0 0 0 0 0 0 0 0 0 0 0 0 0 8 0 0 0 0 0 0 0 0 0 0 0 0 0 0 0 0 0
0.00 0.00 0.00 10.8030 -64.8987 -1.6271 0.0000 0.0000 0.0000 -10.9833 -9.8053 -27.8933 3.2544 11.0959 32.6040 0.2808 6.4795 -14.4415 0.0452 -1.3716 -3.7718 0.0000 0.0000 0.0000 19.8772 11.8882 -10.6190 -2.2357 -9.3406 26.8667 -1.4355 -11.2729 -29.2027 -0.4243 -4.1809 11.5860 -2.0812 0.5130 3.4528 0.2522 0.5807 -2.1437 1.3868 0.3497 -4.1719 2.8011 3.7327 -8.0413 -5.5326 4.9041 1.5809 -2.0528 2.3051 2.1331 -0.0000 0.0000 0.0000 -81.4088 15.7795 21.6620 21.1839 -32.0423 -6.1472 -0.0000 0.0000 -14.0690 5.7890 -20.9657 -2.0775 -7.1250 0.0000 -0.0000 -14.4724 9.4359 12.3141 -0.0000 0.0000 0.0000 77.0242 -12.9023 31.9757 -19.6887 30.2654 -5.3736 0.0000 -0.0000 -8.3039 -21.6007 -30.6133 11.3997 7.1250 -0.0000 -0.0000 11.8460 -62.0684 -4.9549
0.00 0.00 0.00 15.1149 -66.0207 -6.6547 0.0000 0.0000 0.0000 -12.9168 -8.7376 -14.4721 2.3088 9.4816 27.3138 0.6029 9.3682 -20.9324 0.8502 -5.8806 -16.4385 0.0000 0.0000 0.0000 11.9986 10.1812 -15.9533 -3.4103 -11.3313 33.4056 -1.0286 -10.4434 -25.5857 -0.2893 3.4592 -9.5599 -4.5154 -0.4444 2.9089 -0.1351 -0.7953 -1.5349 2.4370 -0.3044 -3.1571 2.9820 4.3634 -5.6327 -6.7513 5.5490 -2.9903 -2.5248 2.6846 0.3185 0.0000 0.0000 0.0000 -76.4172 7.0133 -3.2172 6.6690 -11.3733 -0.6648 -0.0000 -0.0000 16.4437 14.5133 -23.3178 -5.8505 -7.1250 0.0000 -0.0000 -9.0663 6.2294 8.1340 0.0000 0.0000 0.0000 77.5142 -12.7054 28.7161 -15.8761 25.3524 -3.5927 0.0000 -0.0000 -14.9376 -21.9463 -26.4770 10.1842 7.1250 -0.0000 -0.0000 9.0595 -57.9856 -2.8945
0.00 0.00 0.00 8.3527 -64.2413 -0.2325 0.0000 0.0000 0.0000 -16.8652 -6.1927 -25.2801 4.2220 12.4501 37.3434 1.1397 1.7122 -20.8540 0.5660 -4.8186 -13.3920 0.0000 0.0000 0.0000 5.5232 14.6005 -12.5445 -2.5304 -9.8930 28.6310 -1.5388 -4.3870 -25.3650 -0.0020 0.2859 -0.7856 -5.9240 1.7080 3.4502 -2.1927 1.8608 -1.9663 0.9168 1.0403 -4.0953 2.1980 1.5821 -6.5856 -1.9743 2.0268 4.0607 -0.9282 0.9821 2.4776 -0.0000 0.0000 0.0000 -79.6507 -40.4794 50.4331 70.9893 -58.5894 -43.6142 -0.0000 0.0000 -30.6954 24.1605 -24.6848 -10.6110 -7.1250 0.0000 -0.0000 -3.2355 3.2798 3.0500 -0.0000 0.0000 0.0000 79.7564 32.9542 52.8892 -75.9730 59.2433 -47.8831 0.0000 -0.0000 -11.5405 -11.8414 -18.8192 3.8693 7.1250 -0.0000 -0.0000 15.8546 -48.5183 -1.4087
0.00 0.00 0.00 8.8937 -65.0513 -1.0521 0.0000 0.0000 0.0000 -17.1156 -5.3625 -25.5773 4.3927 12.6654 38.1287 1.1695 1.4990 -21.0242 0.6551 -5.1772 -14.4146 0.0000 0.0000 0.0000 5.0900 14.4131 -13.5391 -2.6869 -10.1701 29.5294 -1.3531 -4.4848 -23.9976 -0.0185 0.8773 -2.4112 -6.2080 1.5900 3.7832 -2.4721 1.6302 -2.1761 0.7881 0.9383 -4.4919 3.6264 1.9315 -6.7792 -2.5031 2.4039 5.3048 -1.3381 1.1797 2.9817 -0.0000 0.0000 0.0000 -77.8504 -41.4255 48.9124 91.3766 -59.9928 -61.1921 -0.0000 0.0000 -29.0523 23.5672 -24.6007 -10.2922 -7.1250 0.0000 -0.0000 -3.5879 3.4820 3.3701 -0.0000 0.0000 0.0000 80.1620 37.4761 53.2981 -91.2503 59.9941 -61.0827 0.0000 -0.0000 -12.9691 -13.8012 -18.5971 4.4794 7.1250 -0.0000 -0.0000 13.9430 -48.5821 -1.2544
0.00 0.00 0.00 7.5951 -65.4847 -0.2806 0.0000 0.0000 0.0000 -16.3811 -4.6481 -25.9189 4.6549 12.9843 39.3098 1.2908 -0.2229 -21.4186 0.3143 -3.6042 -9.9656 0.0000 0.0000 0.0000 5.7758 13.2213 -14.4123 -2.8487 -10.4460 30.4336 -1.2563 -4.0882 -23.0036 -0.0739 1.7539 -4.8261 -5.9378 1.2633 3.8352 -2.3657 1.2228 -1.9953 0.7839 0.7244 -4.3017 4.4305 2.5711 -6.8884 -2.2297 3.1620 5.9034 -1.3538 1.5862 3.2479 0.0000 0.0000 0.0000 -76.4856 -43.6032 47.2161 108.4345 -58.6762 -75.8938 -0.0000 0.0000 -27.5104 23.8361 -24.8559 -10.5204 -7.1250 0.0000 -0.0000 -3.4542 3.1623 3.2645 0.0000 0.0000 0.0000 80.5457 41.9810 52.9255 -105.4591 59.0775 -73.3465 0.0000 -0.0000 -11.3818 -9.1378 -19.8055 3.1196 7.1250 -0.0000 -0.0000 18.7652 -49.0760 -1.9487
0.00 0.00 0.00 6.8762 -65.3088 0.0294 0.0000 0.0000 0.0000 -15.8920 -4.4674 -26.1361 4.8320 13.1921 40.0920 1.3086 -0.2968 -21.5428 0.3555 -3.8307 -10.6009 0.0000 0.0000 0.0000 6.1655 12.8704 -14.9135 -3.0908 -10.8406 31.7441 -1.3422 -3.3738 -23.3299 -0.0504 1.4493 -3.9859 -6.0296 1.2630 3.9667 -1.9863 1.2351 -1.8590 1.2264 0.7381 -4.2450 3.9653 2.2507 -6.5432 -2.3259 2.7987 5.7651 -1.3230 1.3925 3.1116 0.0000 -0.0000 0.0000 -77.2072 -45.6622 47.2617 123.4234 -55.3265 -88.4913 -0.0000 0.0000 -27.5331 22.8978 -24.4486 -9.9157 -7.1250 0.0000 -0.0000 -3.9802 3.7665 3.7193 0.0000 -0.0000 0.0000 79.1635 46.2092 51.1028 -116.7158 57.1234 -82.9131 0.0000 -0.0000 -14.4399 -11.8758 -17.9586 3.7098 7.1250 -0.0000 -0.0000 15.5022 -47.6850 -1.0509
0.00 0.00 0.00 6.9473 -64.8143 -0.5113 0.0000 0.0000 0.0000 -15.7910 -4.9617 -26.3942 5.1722 13.5751 41.5614 1.3675 -0.3730 -22.0027 0.5689 -4.8305 -13.4259 0.0000 0.0000 0.0000 6.3587 10.9005 -15.5980 -3.3261 -11.2051 32.9748 -1.2344 -3.6143 -22.5716 -0.5258 4.6468 -12.9038 -6.2796 0.9291 4.2320 -1.9176 0.7673 -1.6596 1.4728 0.5085 -4.1613 3.5059 2.3932 -6.1283 -1.2167 2.9665 5.9752 -0.8718 1.5082 3.0732 0.0000 -0.0000 0.0000 -76.7290 -48.2698 46.5342 137.1823 -49.6535 -99.4383 -0.0000 0.0000 -27.9155 21.3466 -24.4880 -9.2018 -7.1250 0.0000 -0.0000 -4.9356 4.0032 4.5964 0.0000 -0.0000 0.0000 81.2310 50.7729 50.3983 -128.5955 53.5465 -92.7002 0.0000 -0.0000 -14.5303 -11.8128 -18.4491 3.7867 7.1250 -0.0000 -0.0000 15.7413 -48.1542 -1.2539
0.00 0.00 0.00 6.8033 -64.0701 -0.8037 0.0000 0.0000 0.0000 -15.2711 -5.1201 -26.8932 5.5849 14.0136 43.2920 1.4342 -1.2038 -22.2904 0.5222 -4.6310 -12.8591 0.0000 0.0000 0.0000 6.6244 8.7831 -16.9300 -3.7939 -11.8810 35.3124 -1.3620 -1.8218 -22.7741 -0.5248 4.6424 -12.8915 -6.3255 0.6742 4.2505 -1.8264 0.4347 -1.5377 1.6206 0.3410 -4.0212 4.0852 2.4336 -5.1704 -2.4958 3.0996 6.3695 -1.3958 1.5470 3.0749 -0.0000 -0.0000 0.0000 -78.4528 -51.6335 46.6240 150.3689 -40.5751 -108.8311 -0.0000 0.0000 -33.0028 23.2750 -24.5358 -10.1276 -7.1250 0.0000 -0.0000 -3.7591 3.6052 3.5230 -0.0000 -0.0000 0.0000 81.8372 54.0480 48.3313 -142.4950 46.5203 -103.3945 0.0000 -0.0000 -17.0850 -12.6444 -16.9988 3.7524 7.1250 -0.0000 -0.0000 14.4603 -46.8479 -0.6731
0.00 0.00 0.00 13.7829 -61.9009 -6.9821 0.0000 0.0000 0.0000 -14.8778 -5.3502 -22.7766 4.5456 12.8531 38.8209 1.2633 -0.1272 -21.2192 1.3896 -7.4583 -21.0806 0.0000 0.0000 0.0000 6.9182 5.3292 -20.3754 -5.4763 -13.9009 42.8419 -1.8572 1.9039 -25.2527 -0.2837 3.4254 -9.4656 -5.8923 1.0850 4.2746 -2.5573 0.9530 -1.8188 0.5761 0.5844 -4.3466 4.4272 3.7813 -2.2156 -4.7461 5.1328 6.2323 -2.1525 2.5165 2.6501 -0.0000 0.0000 0.0000 -77.0581 -29.4675 47.5214 150.5039 -40.4576 -108.9188 -0.0000 0.0000 -38.5293 20.6869 -28.8287 -10.3193 -7.1250 0.0000 -0.0000 -5.8190 -0.3515 5.8850 -0.0000 0.0000 0.0000 73.3853 30.4689 55.9712 -147.3745 43.0402 -106.8342 0.0000 -0.0000 -18.9686 -18.3523 -13.5184 4.4341 7.1250 -0.0000 -0.0000 8.2983 -44.0359 0.1989
0.00 0.00 0.00 10.6229 -62.1286 -2.8571 0.0000 0.0000 0.0000 -13.5535 -7.6600 -20.1679 3.7241 11.7839 34.9717 1.2432 2.6597 -22.1717 1.2423 -7.0675 -19.9155 0.0000 0.0000 0.0000 9.5687 7.4039 -16.4149 -4.0690 -12.2517 36.6281 -1.6479 -2.6786 -25.3400 -0.6268 5.0660 -14.0970 -5.1704 0.9986 2.4417 -2.0401 0.9911 -2.7852 0.7251 0.6054 -4.3088 4.7535 3.7745 -2.7099 -5.1386 5.0414 3.4882 -2.3403 2.4759 1.8541 0.0000 0.0000 0.0000 -70.7189 -0.8206 50.7120 138.4004 -48.9895 -100.3621 -0.0000 0.0000 -33.6893 15.6920 -26.4971 -7.1442 -7.1250 0.0000 -0.0000 -8.5498 2.8667 8.2046 0.0000 0.0000 0.0000 67.6414 5.2740 65.8658 -136.5686 49.9765 -98.9695 0.0000 -0.0000 -14.0360 -4.8677 -17.1501 1.4385 7.1250 -0.0000 -0.0000 21.5276 -46.0034 -0.5590
0.00 0.00 0.00 16.1909 -62.4389 -8.3823 0.0000 0.0000 0.0000 -17.0760 -8.4631 -16.3378 3.0777 10.8198 31.6747 1.1537 4.6272 -22.4480 0.7982 -5.7026 -15.9239 0.0000 0.0000 0.0000 6.7429 8.8959 -13.6367 -3.6810 -11.7234 34.7602 -1.8960 -0.5695 -26.2664 -0.0106 -0.6648 1.8269 -8.1319 1.0735 2.5541 -2.1789 0.9091 -3.0189 2.2250 0.6655 -4.6861 4.9403 3.6895 -3.1742 -6.2297 4.9268 2.9854 -2.7388 2.3940 1.8140 -0.0000 0.0000 0.0000 -70.8884 10.5434 51.5690 125.2791 -54.7307 -90.0120 -0.0000 0.0000 -29.5852 17.8500 -26.2786 -8.1142 -7.1250 0.0000 -0.0000 -7.2337 2.7515 6.9344 -0.0000 0.0000 0.0000 65.3238 -4.0750 69.4962 -125.6856 54.5940 -90.3436 0.0000 -0.0000 -14.8331 -5.3912 -19.8273 1.8334 7.1250 -0.0000 -0.0000 22.2145 -48.5571 -2.0424
0.00 0.00 0.00 11.1335 -62.5576 -3.1166 0.0000 0.0000 0.0000 -14.3142 -8.9037 -16.9083 3.0061 10.7050 31.2912 1.0431 5.5612 -22.0622 1.1706 -6.8678 -19.3243 0.0000 0.0000 0.0000 9.8020 10.1198 -12.5043 -3.2443 -11.0804 32.5515 -1.8275 -2.7017 -26.6294 -0.0027 -0.3341 0.9180 -6.0749 0.7606 1.7032 -1.3658 0.6765 -3.5339 1.9474 0.5107 -4.6827 3.9341 3.6711 -3.0751 -5.0949 4.8869 2.3634 -2.1792 2.3891 1.5174 -0.0000 0.0000 0.0000 -71.8393 15.4216 49.4387 110.3350 -58.3784 -77.5147 -0.0000 0.0000 -24.6127 12.8926 -23.7424 -5.2654 -7.1250 0.0000 -0.0000 -10.0896 6.0072 9.1243 -0.0000 0.0000 0.0000 65.0155 -8.7230 71.2707 -114.7167 57.5609 -81.2300 0.0000 -0.0000 -16.8213 -8.9258 -22.0379 3.3726 7.1250 -0.0000 -0.0000 19.9881 -51.1552 -3.1374
0.00 0.00 0.00 10.1239 -65.1537 -2.1711 0.0000 0.0000 0.0000 -13.5243 -7.4887 -16.2866 2.8730 10.4865 30.5671 1.0694 6.3965 -22.8362 1.1616 -6.8421 -19.2484 0.0000 0.0000 0.0000 10.8315 12.6946 -11.8129 -3.0690 -10.8060 31.6283 -1.7101 -3.7326 -26.2788 -0.0103 0.6543 -1.7980 -6.0076 1.5833 1.6505 -1.1308 1.7677 -3.9945 2.0770 1.0754 -5.2310 4.4229 3.5710 -3.5474 -5.4847 4.7380 2.6187 -2.3944 2.3049 1.7061 -0.0000 -0.0000 0.0000 -72.2410 17.7122 48.1313 94.0191 -59.9389 -63.4799 -0.0000 0.0000 -23.3058 11.5680 -21.6833 -4.3249 -7.1250 0.0000 -0.0000 -10.8464 8.2087 9.3605 -0.0000 -0.0000 0.0000 66.6285 -11.9247 70.7455 -101.6096 59.4845 -70.0368 0.0000 -0.0000 -17.6834 -13.5748 -24.9724 5.8206 7.1250 -0.0000 -0.0000 16.9777 -54.7658 -4.1621
